<svg id="_x33_0" enable-background="new 0 0 64 64" height="512" viewBox="0 0 64 64" width="512" xmlns="http://www.w3.org/2000/svg" xmlns:xlink="http://www.w3.org/1999/xlink"><linearGradient id="SVGID_1_" gradientUnits="userSpaceOnUse" x1="32" x2="32" y1="63" y2="1"><stop offset="0" stop-color="#9f2fff"/><stop offset="1" stop-color="#0bb1d3"/></linearGradient><path d="m43 14c0-.552.448-1 1-1s1 .448 1 1-.448 1-1 1-1-.448-1-1zm20-5v9.171c0 8.595-5.8 16.144-14.104 18.358l-.112.03c-.184 1.354-.479 2.691-.914 3.994-.577 1.732-.87 3.536-.87 5.36v3.087h3.458c3.607 0 6.542 2.935 6.542 6.541 0 .357-.03.72-.089 1.074l-1.064 6.385h-8.847v-2.691l-7.719 2.105c-1.426.389-2.897.586-4.373.586-4.361 0-7.908-3.548-7.908-7.908 0-1.566.459-3.083 1.328-4.387l.671-1.007c-.02-3.789-.432-7.54-1.211-11.22-2.939 1.802-4.788 5.019-4.788 8.522v2.382l.422.211c.974.487 1.578 1.466 1.578 2.553 0 1.276-.842 2.36-2 2.724v.13c0 2.206-1.794 4-4 4s-4-1.794-4-4v-10.968c0-7.557 5.152-13.979 12.529-15.619l4.688-1.042c.461-.101.783-.503.783-.975v-1.777l-1.298-.649c-4.134-2.068-6.702-6.223-6.702-10.845 0-6.686 5.439-12.125 12.125-12.125h9.875c1.103 0 2 .897 2 2v2c0 1.78-.769 3.352-2.004 4.441.884 1.796 2.004 4.808 2.004 8.559v1h-2v2c0 2.206-1.794 4-4 4h-2v1c0 .551.449 1 1 1h3c5.514 0 10-4.486 10-10v-2.382l-.422-.211c-.974-.487-1.578-1.466-1.578-2.553 0-1.276.842-2.36 2-2.724v-.13c0-2.206 1.794-4 4-4s4 1.794 4 4zm-17.712 1.508c-.761.316-1.604.492-2.498.492h-2.683c-1.297 0-2.448-.768-2.888-1.884-1.274.347-2.219 1.502-2.219 2.884v3h-1c-.551 0-1 .449-1 1 0 .372.151.737.414 1l1.586 1.586v7.81c0 1.285-.799 2.388-1.979 2.813.111 2.106 1.845 3.791 3.979 3.791 2.206 0 4-1.794 4-4v-.184c-1.161-.414-2-1.514-2-2.816v-3h4c1.103 0 2-.897 2-2h-2c-2.206 0-4-1.794-4-4h2c0 1.103.897 2 2 2h2v-2h1.97c-.165-2.788-.986-5.037-1.682-6.492zm-12.288 11.874v-2.968l-1-1c-.645-.645-1-1.502-1-2.414 0-1.304.836-2.416 2-2.829v-1.171c0-2.47 1.805-4.514 4.162-4.915.098-.305.228-.6.424-.866.563-.763 1.466-1.219 2.414-1.219h1v2h-1c-.321 0-.614.148-.806.407-.113.153-.281.477-.141.931.118.384.561.662 1.053.662h2.683c2.361 0 4.211-1.757 4.211-4v-2h-9.875c-5.583 0-10.125 4.542-10.125 10.125 0 3.86 2.145 7.33 5.597 9.056zm-5.687 14.05c-.454-1.805-.99-3.593-1.626-5.356-5.213 2.116-8.687 7.153-8.687 12.956v10.968c0 1.103.897 2 2 2s2-.897 2-2v-2h1.146c.471 0 .854-.384.854-.854 0-.325-.181-.618-.473-.764l-1.527-.764v-3.618c0-4.428 2.452-8.488 6.313-10.568zm15.687 22.895v-8.327h-12.465l-.543.814c-.649.974-.992 2.108-.992 3.278 0 3.258 2.65 5.908 5.908 5.908 1.298 0 2.592-.174 3.847-.516zm7.458-8.327h-5.458v7.781l2-.545c0-1.617.382-3.237 1.105-4.683l1.789.895c-.585 1.169-.894 2.48-.894 3.788v2.764h5.153l.786-4.712c.04-.247.061-.498.061-.747 0-2.504-2.037-4.541-4.542-4.541zm-3.458-17.412c0-1.576-.191-3.15-.56-4.683-.473.057-.952.095-1.44.095h-2c0 3.309-2.691 6-6 6-3.078 0-5.618-2.33-5.958-5.318l-3.079.684c-.126.028-.246.068-.371.099 2.146 5.97 3.278 12.2 3.386 18.535h14.022v-3.087c0-2.04.327-4.056.972-5.993.682-2.045 1.028-4.176 1.028-6.332zm14-24.588c0-1.103-.897-2-2-2s-2 .897-2 2v2h-1.146c-.471 0-.854.383-.854.854 0 .326.181.619.473.765l1.527.763v3.618c0 5.436-3.636 10.033-8.602 11.503.395 1.665.602 3.373.602 5.085 0 .276-.023.551-.033.826 7.112-2.175 12.033-8.76 12.033-16.243zm-46 4h8v-2h-8zm-2-2h-12v2h12zm-4 6h14v-2h-14zm-6 4h22v-2h-22zm8 4h16v-2h-16z" fill="url(#SVGID_1_)"/></svg>